<?xml version="1.0" encoding="UTF-8"?><svg xmlns="http://www.w3.org/2000/svg" xmlns:xlink="http://www.w3.org/1999/xlink" viewBox="0 0 218.21 45.71"><defs><style>.m{fill:url(#e);}.n{fill:url(#d);}.o{fill:url(#g);}.p{fill:url(#f);}.q{fill:url(#i);}.r{fill:url(#h);}.s{fill:url(#k);}.t{fill:url(#j);}.u{fill:url(#l);}.v{fill:#023a79;}.w{fill:#e58423;}.x{fill:#b0c530;}.y{fill:#dc3180;}.a`{fill:#483080;}</style><radialGradient id="d" cx="137.87" cy="23.4" fx="137.87" fy="23.4" r="137.55" gradientTransform="matrix(1, 0, 0, 1, 0, 0)" gradientUnits="userSpaceOnUse"><stop offset="0" stop-color="#028ac3"/><stop offset="1" stop-color="#024580"/></radialGradient><radialGradient id="e" cx="137.87" cy="23.4" fx="137.87" fy="23.4" r="137.55" xlink:href="#d"/><radialGradient id="f" cx="137.87" fx="137.87" r="137.55" xlink:href="#d"/><radialGradient id="g" cx="137.87" fx="137.87" r="137.55" xlink:href="#d"/><radialGradient id="h" cx="137.87" cy="23.4" fx="137.87" fy="23.4" r="137.55" xlink:href="#d"/><radialGradient id="i" cx="137.87" fx="137.87" r="137.55" xlink:href="#d"/><radialGradient id="j" cx="137.87" fx="137.87" r="137.55" xlink:href="#d"/><radialGradient id="k" cx="137.87" cy="23.4" fx="137.87" fy="23.4" r="137.55" xlink:href="#d"/><radialGradient id="l" cx="137.87" cy="23.4" fx="137.87" fy="23.4" r="137.55" xlink:href="#d"/></defs><g id="a"/><g id="b"><g id="c"><g><path class="x" d="M131.8,0c.42,.22,.86,.41,1.25,.66,1.26,.83,1.96,2,1.96,3.52,0,4.91,0,9.81,0,14.72,0,.23,.08,.48-.12,.68-2.89-2.9-5.78-5.8-8.67-8.7,0-1.98,.04-3.97,0-5.95-.04-2.14,.77-3.74,2.78-4.65,.13-.06,.23-.13,.24-.28h2.56Z"/><path class="v" d="M141.02,19.66c-.29-.26-.15-.6-.15-.9,0-4.63,.02-9.27-.02-13.9-.02-2.24,.88-3.82,3.03-4.6,.13-.05,.25-.1,.23-.27h1.92c.11,.28,.4,.21,.61,.29,1.82,.65,2.94,2.18,2.97,4.1,.03,2.2,.03,4.4,.04,6.59-1.09,1.09-2.18,2.17-3.26,3.26-1.79,1.8-3.58,3.61-5.37,5.42Z"/><path class="w" d="M126.55,34.61c-2.21,0-4.42,0-6.63,0-2.61-.01-4.58-1.92-4.57-4.4,0-2.47,1.93-4.34,4.53-4.35,4.9-.02,9.8,0,14.7,0,.21,0,.42,.05,.62,.08-2.89,2.89-5.77,5.79-8.66,8.68Z"/><path class="y" d="M141.02,19.66c1.79-1.81,3.58-3.62,5.37-5.42,1.08-1.09,2.18-2.17,3.26-3.26,2.21,0,4.42,0,6.63,.02,2.6,.01,4.61,1.94,4.6,4.4,0,2.46-1.94,4.34-4.55,4.35-4.9,.02-9.8,0-14.7,0-.21,0-.43,.04-.62-.09Z"/><path class="v" d="M126.23,10.88c2.89,2.9,5.78,5.8,8.67,8.7-.29,.02-.58,.05-.87,.05-4.79,0-9.59,0-14.38,0-2.67,0-4.62-1.83-4.62-4.33,0-2.53,1.98-4.4,4.66-4.4,2.18,0,4.37-.01,6.55-.02Z"/><path class="v" d="M140.9,26c2.55-.01,5.11-.03,7.66-.04,2.53,0,5.06-.01,7.59,0,2.47,.01,4.39,1.9,4.41,4.31,.02,2.41-1.94,4.39-4.41,4.42-2.29,.03-4.58,.03-6.87,.04-.1-.32-.37-.51-.59-.73-2.42-2.42-4.84-4.83-7.26-7.24-.22-.22-.51-.4-.54-.76Z"/><path class="v" d="M126.55,34.61c2.88-2.89,5.77-5.79,8.66-8.68,.25,.24,.14,.55,.14,.83,0,4.76,0,9.51,0,14.27,0,2.61-1.85,4.52-4.35,4.53-2.49,0-4.42-1.98-4.43-4.57,0-2.13-.01-4.25-.02-6.38Z"/><path class="a`" d="M140.9,26c.03,.36,.32,.54,.54,.76,2.42,2.42,4.84,4.83,7.26,7.24,.22,.22,.49,.41,.59,.73,0,2.18-.03,4.35,.01,6.53,.04,2.14-1.46,4.1-4.08,4.43-1.91,.24-4.48-1.26-4.64-3.97-.1-1.69-.04-3.4-.04-5.09,0-3.32,0-6.63,.01-9.95,0-.24-.25-.71,.35-.68Z"/><g><path class="n" d="M110.65,19.08c-.51-1.97-1.44-3.74-3.08-5-3.48-2.66-7.38-2.83-11.46-1.81,.18,1,.32,2.01,.42,3.03-.1-1.01-.23-2.02-.42-3.03-2.83,.68-4.89,2.36-6.02,5-1.62,3.75-1.67,7.62-.12,11.38,1.54,3.72,4.58,5.49,8.55,5.75,1.06,.21,2.12,.15,3.18,.04,4.85-.53,8.04-3.18,9.09-7.88,.56-2.5,.51-5.01-.14-7.49Zm-6.76,8.81c-.98,1.87-2.89,2.6-4.96,2.13-.23-.05-.47-.1-.7-.16-1.87-.98-2.72-2.65-3.01-4.62-.43-2.88-.3-5.68,1.73-8.05-.07-.18-.18-.35-.25-.53,.08,.18,.18,.35,.25,.53,.66-.46,1.33-.87,2.14-1.01,2.24-.36,4.08,.44,5.01,2.5,1.38,3.06,1.35,6.2-.22,9.19Z"/><path class="m" d="M43.06,12.09c-1.44,.02-2.88,.05-4.31-.01-.76-.03-.97,.16-.98,.95-.05,4.72,.23,9.44-.16,14.16-.29,.92-.67,1.83-1.46,2.4-1.88,1.35-4.65,.44-5.47-1.73-.4-1.07-.45-2.18-.45-3.3,0-3.93-.01-7.86,.01-11.8,0-.53-.15-.68-.67-.67-1.57,.03-3.15,.02-4.72,0-.41,0-.55,.11-.55,.54,.02,4.68-.05,9.35,.05,14.03,.06,2.62,1.06,4.94,3.44,6.3,3.49,2,7.18,2.03,10.93,.73,2.85-.87,4.9-3.66,4.95-7,.08-4.67,.03-9.34,.06-14.01,0-.53-.21-.61-.66-.6Z"/><path class="p" d="M86.8,12.49c-1.07,.01-2.13-.01-3.2,0-.74,.01-1.63-.29-2.18,.12-.55,.41-.52,1.34-.72,2.05-.74,2.57-1.44,5.15-2.16,7.73-.71,2.38-1.42,4.76-2.14,7.17-.23-.18-.23-.37-.28-.55-1.49-5.25-2.99-10.5-4.47-15.76-.16-.58-.39-.81-1.02-.79-1.6,.05-3.2,.03-4.79,0-.57-.01-.69,.14-.51,.68,2.33,6.9,4.65,13.81,6.96,20.72,.16,.48,.4,.65,.91,.64,1.73-.03,3.46-.01,5.19-.01q1.56,0,1.95-1.57c2.29-6.64,4.58-13.29,6.89-19.92,.17-.5-.04-.53-.43-.53Z"/><path class="o" d="M20.45,13.25c0-.66-.22-.8-.82-.78-1.28,.04-2.56,.05-3.83,0-.63-.02-.8,.16-.79,.79,.05,4.35,.06,8.71,.06,13.06,0,.28,.18,.64-.19,.85-.1-.24-.2-.49-.31-.72-2.19-4.38-4.4-8.75-6.55-13.14-.34-.69-.72-.99-1.46-.77-2.13-.07-4.27-.11-6.4,.02l-.15-.04v22c1.6,0,3.19-.02,4.79,0,.49,0,.7-.09,.69-.65-.06-3.18-.1-6.36-.13-9.54-.02-1.54,0-3.08,0-4.73,.82,1.2,1.17,2.53,1.98,3.61,.11-.03,.19-.06,.24-.11-.06,.04-.14,.08-.24,.11,1.86,3.65,3.71,7.31,5.56,10.97,.13,.25,.29,.35,.56,.34,.69-.02,1.38-.04,2.06-.05,1.41,.02,2.82,.01,4.23,.07,.58,.02,.71-.18,.71-.73-.02-6.85-.02-13.7,0-20.55ZM7.69,22.95c.02-.06,.03-.12,.03-.19,0,.07,0,.13-.03,.19Z"/><path class="r" d="M62.65,30.32c-2.47,.02-4.94,.02-7.41,0-.66,0-1.33,.09-1.98-.07,0-1.43,.02-2.86,0-4.29,0-.44,.11-.62,.58-.6,.61,.02,1.22-.03,1.83-.05,2.1,.15,4.2,.02,6.29,.07,.34,0,.47-.13,.46-.47-.01-1.09-.01-2.17,0-3.26,0-.34-.12-.47-.46-.46-2.2,.04-4.41-.08-6.61,.06-.48-.02-.96-.08-1.43-.04-.55,.04-.67-.18-.66-.68,.03-1.25,0-2.49,0-3.74,.3-.15,.63-.09,.94-.09,2.69,0,5.38-.01,8.07,0,.49,0,.73-.08,.7-.65-.05-.98-.04-1.96,0-2.94,.02-.56-.21-.65-.71-.65-4.77,.01-9.53,0-14.3,.02-.2,0-.5-.17-.59,.2-.01,.29-.04,.58-.04,.87,0,4.62,0,9.24,0,13.85,0,2.15,0,4.3,0,6.45,0,.35-.05,.68,.5,.67,2.98-.04,5.96-.04,8.94-.06,2.02,.02,4.03,.03,6.05,.06,.47,0,.5-.25,.5-.6-.01-.98-.03-1.96,0-2.94,.02-.54-.19-.67-.69-.66Z"/><path class="q" d="M186.61,12.5c-1.11,.22-2.2,.05-3.3,.03-.75-.09-1.49-.07-2.24,0-.39-.11-.7-.08-.91,.36-1.09,2.32-2.2,4.62-3.3,6.93-.24,.43-.48,.85-.72,1.29-.26-.15-.29-.37-.38-.56-1.22-2.48-2.45-4.95-3.65-7.44-.23-.47-.48-.67-1.02-.65-1.76,.04-3.52,.01-5.27,.02-.22,0-.53-.13-.66,.11-.12,.23,.13,.43,.25,.63,2.44,4.11,4.89,8.22,7.35,12.32,.27,.45,.4,.9,.4,1.42-.02,2.28,0,4.57,0,6.85,0,.35-.05,.71,.5,.69,1.2-.04,2.39-.04,3.59-.06,.29,.02,.59,.01,.87,.06,.79,.13,.97-.21,.96-.96-.05-2.12,0-4.25-.03-6.37,0-.83,.25-1.52,.69-2.21,.64-.99,1.36-1.94,1.8-3.05,.67-1.08,1.44-2.11,1.96-3.28,.22-.35,.45-.7,.66-1.06,.9-1.5,1.79-3,2.69-4.51,.17-.29,.36-.69-.24-.57Z"/><path class="t" d="M209.97,17.68c-1.24-3.16-3.65-4.99-7-5.6-.09-.09-.19-.12-.31-.06-.2-.11-.42-.15-.65-.11-.09-.09-.2-.09-.31-.03-.69-.17-1.38-.19-2.08-.1-.76-.09-1.51-.03-2.24,.18-.86,.03-1.66,.26-2.43,.64-.91,.24-1.7,.69-2.39,1.33-.83,.51-1.44,1.22-1.92,2.06-.37,.36-.56,.83-.76,1.29-1.11,2.46-1.32,5.05-1.04,7.69,.19,1.78,.61,3.49,1.64,4.99,.47,.89,1.11,1.63,1.93,2.21,1.38,1.21,2.99,1.89,4.81,2.09,.15,.1,.32,.12,.49,.08,.2,.13,.41,.14,.63,.07,.42,.13,.85,.15,1.28,.06,.7,.1,1.39,.05,2.08-.09,.11,.08,.21,.06,.3-.03,3.77-.45,6.57-2.3,7.97-5.86,1.41-3.57,1.39-7.23-.01-10.8Zm-11.25,12.46s.06,.05,.09,.05c-.03,0-.06-.02-.09-.05Zm2.1,0s.06,.04,.08,.04c-.03,0-.05-.01-.08-.04Zm3.36-3.18c-.54,1.51-1.57,2.57-3.12,3.07-.11-.06-.21-.03-.28,.06l-1.14,.09c-.22-.03-.45-.05-.67-.08-.08-.1-.18-.12-.29-.06-.52-.25-1.03-.5-1.55-.75-.01,.61-.04,1.22-.05,1.84,0-.61,.04-1.22,.05-1.84-2.16-2-2.35-4.61-2.21-7.3,.04-.68,.2-1.36,.3-2.04-.01-.98-.02-1.96-.03-2.94,.01,.98,.02,1.96,.03,2.94,.36-1.33,1.1-2.42,2.19-3.26,.8-.41,1.65-.61,2.55-.6h0c2.12,.05,3.51,1.16,4.22,3.08,.96,2.58,.94,5.2,.01,7.79Z"/><path class="s" d="M214.58,11.02c-2.01,0-3.64,1.63-3.64,3.64s1.63,3.64,3.64,3.64,3.64-1.63,3.64-3.64-1.63-3.64-3.64-3.64Zm0,6.33c-1.49,0-2.69-1.21-2.69-2.69s1.21-2.69,2.69-2.69,2.69,1.21,2.69,2.69-1.21,2.69-2.69,2.69Z"/><path class="u" d="M213.09,16.16v-3.21h1.66c.31,0,.54,.03,.7,.08,.16,.05,.29,.15,.39,.29,.1,.14,.15,.32,.15,.52,0,.18-.04,.33-.11,.46s-.18,.23-.31,.31c-.08,.05-.2,.09-.35,.13,.12,.04,.2,.08,.26,.12,.04,.03,.09,.08,.16,.17,.07,.09,.12,.15,.14,.2l.48,.93h-1.12l-.53-.98c-.07-.13-.13-.21-.18-.25-.07-.05-.15-.07-.24-.07h-.09v1.3h-1Zm1-1.91h.42s.13-.01,.26-.04c.07-.01,.12-.05,.16-.1,.04-.05,.06-.12,.06-.19,0-.1-.03-.18-.1-.24-.07-.06-.19-.08-.37-.08h-.44v.65Z"/></g></g></g></g></svg>