<?xml version="1.0" encoding="UTF-8"?><svg xmlns="http://www.w3.org/2000/svg" viewBox="0 0 164.05 117.22"><defs><style>.d,.e{fill:#fff;}.e{opacity:.25;}</style></defs><g id="a"/><g id="b"><g id="c"><g><path class="d" d="M103.94,65.9c-.63,1.5-.77,2.89-1.1,4.24-.34,1.39-.97,2.52-2.1,3.49-4.78,4.11-7.78,9.43-10.17,15.15-.48,1.16-.53,2.63-2.04,3.14-.11,.04-.22,.28-.21,.42,.13,1.53-.93,1.47-1.94,1.48-1.52,0-3.03,0-4.55,0-.51,0-1.02-.02-1.28-.53-.3-.57-.16-1.14,.22-1.61,.59-.73,1.23-1.43,1.86-2.12,3.56-3.92,6.86-8.04,9.2-12.83,1.59-3.27,2.66-6.69,2.61-10.38-.01-.99-.17-1.96-.41-2.91-.34-1.33-.9-1.74-2.29-1.67-1.64,.08-2.96,.91-4.19,1.89-.58,.47-1.04,.53-1.76,.2-2.19-.99-4.52-1.45-6.92-1.45-4.99,0-8,3.81-6.92,8.71,.88,3.98,2.49,7.7,3.93,11.48,.9,2.37,1.72,4.77,2.27,7.25,.16,.72,.35,1.48-.64,1.84-.34,.13-.42,.49-.41,.83,.03,1.09-.67,1.27-1.54,1.27-1.68,0-3.36,.01-5.04,0-1.2-.01-1.56-.44-1.3-1.62,.25-1.16,.53-2.31,.69-3.49,.55-4.11,0-8.09-1.36-11.96-1.33-3.75-3.79-6.65-7.02-8.94-.67-.47-1.05-.38-1.5,.24-.97,1.34-1.65,2.83-2.24,4.35-2.2,5.67-3.79,11.5-4.46,17.55-.09,.78-.29,1.46-1.18,1.65-.58,.13-.61,.61-.63,1.06-.04,.84-.55,1.14-1.29,1.15-1.68,.02-3.36,.02-5.04,.01-.93,0-1.23-.53-1.08-1.37,.12-.65,.48-1.21,.8-1.79,2.82-5.05,5.45-10.18,6.83-15.84,.88-3.61,1.25-7.25,.67-10.95-.14-.9-.36-1.81-.94-2.51-3.06-3.7-5.07-8.01-7.21-12.25-.93-1.85-2.41-2.96-4.39-3.44-.39-.1-.8-.16-1.21-.18-2.02-.09-4.66-2.17-5.24-4.13-.22-.74-.02-1.37,.43-1.95,.61-.77,1.25-1.52,1.85-2.3,.58-.75,1.01-1.55,1.04-2.56,.05-1.41,1.12-2.33,1.9-3.36,1.22-1.6,1.26-1.82,.03-3.37-2.34-2.96-3.31-6.35-3.29-10.06,0-.33,.02-.66,.09-.98,.05-.23,.14-.53,.44-.49,.17,.02,.37,.19,.46,.35,.21,.39,.39,.81,.54,1.23,4.09,11.35,17.46,12.39,24,6.8,.53-.45,1.24-1.39,1.8-.9,.63,.56-.19,1.41-.57,2.04-1.65,2.69-4.21,4.29-6.91,5.72-.53,.28-1.43,.41-1.45,.99-.02,.72,.9,.85,1.48,1.08,12.04,4.75,24.38,7.57,37.44,6.01,3.25-.39,6.52-.65,9.78-.95,1.6-.15,3.2-.14,4.78,.17,4.01,.79,6.58,3.13,7.57,7.12,.93,3.76,1.13,7.62,1.16,11.46,.09,10.6,.07,21.21,.07,31.82,0,1.85-.27,2.09-2.17,2.11-1.31,.01-2.62,0-3.93-.02-.83-.01-1.36,.25-1.27,1.2,.1,1.03-.57,1.26-1.39,1.28-1.6,.02-3.2,.03-4.79,0-.98-.02-1.4-.61-1.09-1.56,.19-.58,.52-1.11,.8-1.66,2.6-5.03,4.57-10.25,4.48-16.03-.05-3.07-.77-5.97-2.76-8.67Zm-28.71-18.24c0-.66,.03-1.31,0-1.96-.06-1.06-.13-2.12-.48-3.14-.35-1-1.17-1.2-2.09-1.08-1.01,.14-.56,.96-.57,1.47-.02,2-.38,3.92-1.37,5.66-.91,1.62-2.22,2.72-4.21,2.72-1.71,0-2.56-1.01-2.18-2.71,.5-2.25,.66-4.52,.65-6.82,0-1.16-.48-1.83-1.48-2.28-1.31-.59-2.68-1.02-4.06-1.38-1.59-.41-2.17-.16-3.13,1.2-1.98,2.79-3.52,5.81-4.71,9-.67,1.79-.91,3.64-.53,5.54,.76,3.74,3.17,6.17,6.32,8.03,3.67,2.16,7.19,4.55,10.59,7.11,.41,.31,.8,.89,1.36,.56,.48-.28,.43-.93,.48-1.45,.02-.16,0-.33,.01-.49,.12-2.47,1.18-4.47,3.07-6.04,2.53-2.11,5.57-2.81,8.75-3.16,3.31-.36,6.62-.16,9.93,0,4.33,.22,8.4,1.24,12.06,3.65,1.94,1.28,3.34,.83,4.04-1.4,1.32-4.22,1.79-8.56,1.45-12.96-.13-1.74-.49-3.49-1.61-4.95-.74-.97-1.71-1.48-2.93-1.55-.86-.04-1.3,.14-.78,1.1,.47,.87,.73,1.83,.88,2.8,.25,1.67,.18,3.29-1.25,4.5-1.4,1.19-2.84,.74-3.38-.99-.56-1.79-1.05-3.62-2.17-5.18-.88-1.23-1.97-2.05-3.59-1.98-.97,.05-1.21,.47-.93,1.35,.27,.86,.5,1.73,.69,2.6,.95,4.26,0,5.99-4.15,7.29-3.36,1.05-6.81,1.38-10.3,.78-2.93-.5-4.67-1.34-4.37-5.12,.02-.24,0-.49,0-.74Zm-39.85-6.81c.04,.11,.07,.42,.22,.64,.85,1.27,1.87,2.24,3.56,2.22,2.27-.03,4.16,.92,5.59,2.63,.94,1.12,1.69,2.41,2.53,3.62,.23,.33,.42,.81,.86,.8,.55,0,.63-.57,.79-.98,.89-2.2,1.9-4.35,3-6.45,.87-1.67,1.8-3.3,2.81-4.89,.86-1.34,.68-1.85-.72-2.62-1.07-.6-2.13-1.22-3.21-1.8-2.05-1.11-4-2.4-6.14-3.35-.88-.39-1.86-.8-2.72-.31-1.74,1-3.31,2.42-3.64,4.41-.3,1.84-1.24,3.15-2.26,4.52-.32,.43-.66,.84-.68,1.58Zm47.48,11.24c2.83,.02,5.31-.42,7.69-1.38,1.29-.53,1.87-1.48,1.94-2.84,.06-1.38-.26-2.67-.72-3.95-.58-1.61-1.42-2.19-3.14-2.13-1.14,.04-2.28,.12-3.42,.19-2.37,.14-4.73-.18-7.1-.24-1.03-.03-1.51,.37-1.41,1.46,.18,2.03,.34,4.07,.28,6.11-.03,1.03,.57,1.66,1.48,2.03,1.5,.62,3.07,.8,4.41,.74Zm30.19,7.72h.01c0-1.51,.07-3.03-.02-4.53-.13-2.4-.13-4.83-.86-7.16-.13-.42-.26-1.05-.75-.99-.58,.07-.36,.73-.37,1.13-.05,2.41-.12,4.82-.46,7.21-.2,1.41-.62,2.83-.38,4.25,.45,2.7,1,5.38,1.55,8.06,.09,.43,.13,1.12,.81,1,.57-.1,.45-.71,.45-1.13,.02-2.61,0-5.23,0-7.84Zm-42.97-16.27c.03-2.71-.18-2.96-2.02-3.2-.82-.11-1.26,.15-1.19,1.05,.15,2.22-.12,4.4-.63,6.56-.1,.43-.21,.94,.23,1.25,.5,.35,1.02,.18,1.5-.11,.5-.31,.83-.78,1.1-1.3,.78-1.53,.99-3.18,1.03-4.25Zm33.18,2.81c.02-1.38-.31-2.68-.99-3.87-.71-1.24-1.84-1.64-3.13-1.28-.85,.23-.87,.65-.38,1.21,1.27,1.46,1.99,3.17,2.46,5.02,.13,.52,.23,1.14,.94,1.07,.64-.06,.98-.56,1.09-1.17,.05-.32,0-.65,0-.98Z"/><path class="d" d="M64.23,12.63c0,7-5.63,12.65-12.63,12.66-6.99,0-12.69-5.66-12.7-12.62C38.89,5.7,44.58,0,51.56,0c7,0,12.66,5.63,12.67,12.63Zm-3.69-1.37c.01-4.79-3.67-8.56-8.39-8.57-4.73-.02-8.58,3.75-8.6,8.41-.02,4.73,3.74,8.54,8.44,8.56,4.81,.02,8.54-3.64,8.55-8.4Z"/><path class="d" d="M121.13,105.19c0,2.98-.04,5.97,.02,8.95,.02,1.07-.39,1.68-1.32,2.09-2.33,1.03-4.72,1.31-7.18,.58-2.04-.61-3.53-1.9-4.3-3.89-1.18-3.1-1.11-6.18,.58-9.09,1.81-3.11,5.03-4.31,8.43-3.13,.91,.32,1.01,.07,.98-.73-.04-1.31,.06-2.62-.03-3.92-.09-1.19,.48-1.32,1.46-1.32,.96,0,1.4,.18,1.38,1.27-.07,3.06-.02,6.13-.02,9.2Zm-2.79,3.62c0-1.6-.04-3.19,.02-4.79,.03-.8-.31-1.19-.98-1.49-2.31-1.01-5.02-.07-6.14,2.3-1.26,2.68-1.15,5.42,.21,8.04,1.09,2.09,3.4,2.94,5.68,2.3,.8-.23,1.25-.65,1.22-1.57-.05-1.59-.02-3.19-.01-4.79Z"/><path class="d" d="M82.02,108.76c.02-1.6,.17-3.18,.82-4.68,1.14-2.63,3.33-3.95,6.5-3.89,2.96,.06,5.13,1.46,6.1,4.1,1.08,2.95,1.07,5.95-.03,8.88-.97,2.58-3.23,3.99-6.17,4.02-3.04,.04-5.28-1.33-6.38-3.89-.55-1.28-.82-2.75-.83-4.56Zm11.24-.07c.02-1.48-.08-2.95-.62-4.34-.6-1.56-1.81-2.35-3.52-2.36-1.72,0-3,.73-3.54,2.31-1,2.91-1,5.87,0,8.78,.54,1.57,1.84,2.34,3.53,2.33,1.69,0,2.92-.82,3.52-2.37,.54-1.4,.64-2.86,.62-4.34Z"/><path class="d" d="M15.04,108.29c.07-.56,.11-1.5,.3-2.42,.74-3.68,3.13-5.67,6.76-5.68,3.67-.01,6.07,1.91,6.84,5.59,.51,2.44,.46,4.89-.42,7.25-1,2.68-3.27,4.16-6.32,4.17-3.07,.01-5.33-1.42-6.38-4.08-.57-1.43-.73-2.93-.78-4.83Zm2.93,.36c-.03,1.44,.09,2.86,.57,4.23,.58,1.64,1.81,2.49,3.54,2.52,1.78,.03,3.12-.83,3.65-2.52,.88-2.76,.86-5.57,.02-8.33-.53-1.73-1.81-2.57-3.61-2.57-1.8,0-3.04,.85-3.62,2.56-.46,1.33-.58,2.71-.56,4.11Z"/><path class="d" d="M57.82,108.75c.03,1.4-.15,2.78-.63,4.1-1.04,2.87-3.34,4.39-6.56,4.35-3.13-.04-5.41-1.6-6.34-4.47-.88-2.72-.87-5.49,.04-8.2,.92-2.76,3.16-4.28,6.19-4.34,3.26-.06,5.48,1.32,6.59,4.11,.57,1.43,.74,2.92,.72,4.45Zm-2.88-.07c-.02-1.39-.08-2.78-.55-4.11-.61-1.71-1.81-2.58-3.6-2.59-1.81-.01-3.09,.81-3.62,2.54-.86,2.76-.87,5.57,0,8.33,.54,1.71,1.84,2.56,3.63,2.55,1.77-.01,3-.9,3.6-2.61,.47-1.33,.53-2.72,.55-4.11Z"/><path class="d" d="M66.97,109.12c0-2.13,.03-4.26-.01-6.39-.02-.93,.37-1.47,1.21-1.75,2.66-.88,5.38-1.11,8.11-.48,2.01,.46,3.17,1.65,3.24,3.65,.14,3.93,.1,7.86,.09,11.79,0,1.27-1.07,.65-1.68,.77-.72,.13-1.15-.11-1.14-.97,.03-2.95,.01-5.9,0-8.84,0-.74,.02-1.48-.03-2.21-.11-1.63-.98-2.54-2.6-2.75-.4-.05-.82-.06-1.23-.05-2.64,.05-3.13,.54-3.13,3.12,0,3.48-.05,6.96,.03,10.44,.03,1.2-.52,1.31-1.48,1.3-.92,0-1.44-.12-1.4-1.24,.08-2.13,.02-4.26,.02-6.39Z"/><path class="d" d="M2.83,109.74c0,1.92-.07,3.85,.03,5.77,.07,1.28-.65,1.22-1.53,1.24-.87,.02-1.34-.11-1.32-1.18,.06-4.26,.05-8.51,0-12.77,0-.98,.37-1.54,1.27-1.83,2.62-.85,5.3-1.08,7.99-.47,2.2,.5,3.31,1.85,3.35,4.09,.05,3.72-.01,7.45,.04,11.17,.02,1.28-.84,.91-1.51,.97-.77,.06-1.33,0-1.31-1.06,.06-3.31,.02-6.63,.02-9.95,0-1.34-.02-2.74-1.45-3.39-1.64-.75-3.35-.66-4.98,.14-.56,.27-.6,.82-.6,1.37,0,1.96,0,3.93,0,5.89Z"/><path class="d" d="M134.97,117.19c-1.37,0-2.69-.24-3.88-.97-.73-.45-1.46-1.06-.82-1.97,.57-.81,1.39-.47,2.05,.05,1.19,.94,2.48,1.43,4,.94,1.05-.35,1.76-1.02,1.95-2.15,.19-1.17-.33-2-1.31-2.54-.82-.45-1.69-.83-2.54-1.22-.86-.39-1.7-.81-2.4-1.46-2.16-2-1.75-5.48,.84-6.86,1.96-1.04,4.03-.99,6.07-.23,.79,.29,1.61,.82,1.12,1.82-.5,1.01-1.34,.66-2.08,.16-.89-.59-1.84-.88-2.91-.6-.95,.25-1.59,.81-1.82,1.78-.23,1,.16,1.77,.96,2.33,.47,.33,.98,.59,1.49,.85,.66,.33,1.34,.61,2,.94,2.57,1.31,3.54,2.97,3.08,5.24-.44,2.2-2.39,3.7-5.05,3.88-.24,.02-.49,0-.74,0Z"/><path class="d" d="M37.1,112.57c1.26-3.7,2.51-7.37,3.78-11.04,.15-.44,.19-.94,.87-1.02,1.64-.21,1.86,.03,1.29,1.59-1.65,4.49-3.3,8.98-4.94,13.47-.25,.67-.44,1.22-1.4,1.21-.92,0-1.18-.47-1.44-1.17-1.71-4.55-3.45-9.09-5.18-13.64-.52-1.38-.47-1.36,.97-1.47,1.2-.1,1.72,.35,2.08,1.47,1.03,3.14,2.19,6.25,3.31,9.36,.15,.41,.18,.89,.65,1.25Z"/><path class="d" d="M98.24,109c0-2.17,.02-4.33-.01-6.5-.01-.84,.26-1.45,1.08-1.71,2.15-.68,4.33-.84,6.53-.31,.68,.16,1.38,.41,1.47,1.26,.06,.52-.12,.98-.59,1.26-.74,.44-1.32,.07-1.88-.4-.41-.35-.86-.62-1.38-.76-1.5-.4-2.39,.26-2.39,1.81,0,3.96-.05,7.93,.02,11.89,.02,1.13-.48,1.24-1.39,1.23-.93,0-1.55-.03-1.49-1.27,.1-2.16,.03-4.33,.03-6.5Z"/><path class="d" d="M145.83,105.75c0,3.32-.05,6.63,.03,9.95,.03,1.24-.71,1.02-1.43,1.04-.76,.02-1.41,.13-1.4-1.07,.06-6.63,.06-13.27,0-19.9-.01-1.27,.7-1.1,1.49-1.14,.86-.04,1.36,.07,1.33,1.17-.07,3.32-.03,6.63-.03,9.95Z"/><path class="d" d="M153.49,116.73c-.93,.26-1.55-.31-2.13-1.18-1.47-2.21-3-4.38-4.56-6.54-.47-.65-.55-.99,.21-1.52,2.2-1.53,3.76-3.6,4.76-6.1,.31-.76,2.31-1.29,2.93-.78,.44,.37,.11,.76-.07,1.09-1.18,2.23-2.74,4.17-4.7,5.75-.64,.51-.63,.84-.16,1.45,1.66,2.12,3.28,4.28,4.89,6.44,.25,.34,.81,.65,.58,1.12-.23,.47-.81,.17-1.24,.24-.12,.02-.24,0-.54,0Z"/><path class="d" d="M124.81,108.59c0-2.33,.06-4.66-.02-6.99-.04-1.17,.62-1.11,1.4-1.09,.74,.01,1.46-.14,1.45,1.06-.05,4.7-.06,9.4,0,14.1,.02,1.21-.68,1.07-1.42,1.06-.71-.01-1.48,.22-1.43-1.03,.09-2.37,.03-4.74,.02-7.11Z"/><path class="d" d="M159.04,86.89c2.78,0,5,2.19,5.01,4.97,.01,2.78-2.18,5.01-4.95,5.03-2.81,.03-5.13-2.26-5.1-5.03,.03-2.75,2.27-4.96,5.04-4.96Zm.01,9.16c2.32,0,4.23-1.94,4.18-4.24-.04-2.25-1.93-4.1-4.21-4.1-2.34,0-4.18,1.88-4.15,4.24,.03,2.3,1.87,4.1,4.17,4.09Z"/><path class="d" d="M127.89,96.05c.02,.95-.72,1.7-1.69,1.7-.93,0-1.66-.68-1.69-1.58-.03-.93,.74-1.7,1.7-1.7,.94,0,1.66,.67,1.68,1.57Z"/><path class="e" d="M75.23,47.66c0,.25,.02,.49,0,.74-.3,3.78,1.44,4.61,4.37,5.12,3.49,.6,6.94,.27,10.3-.78,4.15-1.3,5.1-3.03,4.15-7.29-.2-.88-.42-1.75-.69-2.6-.28-.89-.04-1.31,.93-1.35,1.62-.08,2.7,.75,3.59,1.98,1.12,1.56,1.61,3.39,2.17,5.18,.54,1.74,1.98,2.18,3.38,.99,1.44-1.22,1.5-2.83,1.25-4.5-.15-.97-.41-1.93-.88-2.8-.51-.96-.08-1.14,.78-1.1,1.22,.06,2.19,.57,2.93,1.55,1.12,1.46,1.47,3.21,1.61,4.95,.34,4.4-.14,8.75-1.45,12.96-.7,2.24-2.09,2.68-4.04,1.4-3.67-2.41-7.73-3.44-12.06-3.65-3.31-.17-6.61-.37-9.93,0-3.18,.35-6.22,1.04-8.75,3.16-1.88,1.57-2.95,3.57-3.07,6.04,0,.16,0,.33-.01,.49-.06,.52,0,1.17-.48,1.45-.56,.33-.95-.26-1.36-.56-3.4-2.56-6.92-4.95-10.59-7.11-3.15-1.85-5.57-4.28-6.32-8.03-.38-1.9-.14-3.75,.53-5.54,1.2-3.19,2.73-6.21,4.71-9,.96-1.36,1.54-1.61,3.13-1.2,1.39,.36,2.75,.79,4.06,1.38,1,.45,1.48,1.12,1.48,2.28,.01,2.3-.15,4.57-.65,6.82-.38,1.7,.47,2.72,2.18,2.71,1.99,0,3.3-1.11,4.21-2.72,.98-1.74,1.35-3.66,1.37-5.66,0-.51-.44-1.33,.57-1.47,.92-.12,1.74,.08,2.09,1.08,.35,1.01,.42,2.08,.48,3.14,.04,.65,0,1.31,0,1.96Z"/><path class="e" d="M35.38,40.85c.01-.74,.35-1.15,.68-1.58,1.02-1.37,1.96-2.68,2.26-4.52,.33-1.99,1.89-3.42,3.64-4.41,.85-.49,1.84-.08,2.72,.31,2.14,.95,4.09,2.25,6.14,3.35,1.08,.58,2.14,1.2,3.21,1.8,1.4,.77,1.57,1.28,.72,2.62-1.02,1.59-1.94,3.22-2.81,4.89-1.1,2.1-2.11,4.25-3,6.45-.16,.4-.24,.97-.79,.98-.44,0-.63-.47-.86-.8-.84-1.21-1.59-2.49-2.53-3.62-1.43-1.7-3.32-2.66-5.59-2.63-1.69,.02-2.71-.95-3.56-2.22-.15-.22-.18-.53-.22-.64Zm7.75-7.47c-1.47,0-2.6,.7-2.55,1.59,.04,.77,.45,1.19,1.25,1.17,.78-.02,2.2-1.43,2.21-2.19,.01-.74-.56-.52-.91-.58Z"/><path class="e" d="M82.86,52.09c-1.34,.06-2.91-.12-4.41-.74-.91-.38-1.51-1-1.48-2.03,.06-2.05-.09-4.08-.28-6.11-.1-1.09,.37-1.48,1.41-1.46,2.37,.06,4.73,.38,7.1,.24,1.14-.07,2.28-.14,3.42-.19,1.73-.07,2.56,.51,3.14,2.13,.46,1.28,.78,2.57,.72,3.95-.06,1.36-.64,2.31-1.94,2.84-2.38,.97-4.85,1.4-7.69,1.38Z"/><path class="e" d="M70.08,43.54c-.04,1.07-.25,2.72-1.03,4.25-.26,.52-.59,.99-1.1,1.3-.47,.29-1,.46-1.5,.11-.44-.31-.33-.82-.23-1.25,.51-2.16,.78-4.34,.63-6.56-.06-.9,.37-1.16,1.19-1.05,1.84,.24,2.05,.49,2.02,3.2Z"/><path class="e" d="M103.26,46.35c0,.33,.04,.66,0,.98-.1,.61-.45,1.11-1.09,1.17-.71,.07-.81-.56-.94-1.07-.47-1.85-1.2-3.56-2.46-5.02-.49-.57-.47-.98,.38-1.21,1.29-.36,2.41,.04,3.13,1.28,.68,1.19,1.01,2.49,.99,3.87Z"/><path class="e" d="M60.54,11.26c-.01,4.75-3.74,8.42-8.55,8.4-4.7-.02-8.46-3.83-8.44-8.56,.02-4.66,3.88-8.43,8.6-8.41,4.71,.02,8.4,3.79,8.39,8.57Z"/><path class="d" d="M43.13,33.38c.35,.06,.93-.16,.91,.58-.02,.76-1.43,2.16-2.21,2.19-.8,.02-1.22-.41-1.25-1.17-.04-.89,1.08-1.59,2.55-1.59Z"/><path class="d" d="M159.82,92.33c.45,.71,1.11,1.31,1.33,2.17-.51,.27-.86,.15-1.12-.34-.21-.4-.45-.78-.7-1.16-.29-.44-.71-.73-1.25-.61-.68,.15-.29,.74-.38,1.12-.04,.19,0,.41-.01,.61,0,.26-.06,.48-.39,.49-.31,0-.44-.16-.44-.45,0-1.47,0-2.95,0-4.42,0-.22,.06-.46,.29-.47,1.09-.02,2.25-.3,3.24,.33,1.03,.65,.77,1.76-.58,2.71Zm-1.15-.7c.59-.03,1.36,.03,1.36-.81,0-.85-.79-.75-1.38-.81-.61-.06-.98,.05-.98,.82,0,.79,.38,.88,.99,.8Z"/></g></g></g></svg>