<svg xmlns="http://www.w3.org/2000/svg" width="141.312" height="65.39" viewBox="0 0 141.312 65.39">
  <g id="Grupo_3266" data-name="Grupo 3266" transform="translate(-438.414 -44.536)">
    <path id="Trazado_25280" data-name="Trazado 25280" d="M514.033,79.392a7.951,7.951,0,0,1-6.427,2.706c-4.169,0-6.014-2.164-6.4-4.518s-.636-8.656,7.762-8.656a12.8,12.8,0,0,1,5.058.828Zm-20.779-9.641c-.952,2.136-2.291,7.574-.558,11.745,1.875,4.512,5.656,7.708,12.507,7.708s10.071-3.458,10.071-3.458c3.413,5.515,11.479,2.784,11.479,2.784l-.065-5.816h-1.915c-1.532,0-1.829-1.671-1.829-3.064V64.215c-3.881-1.878-13.493-2.545-18.106-1.78,0,0-8.806,1.086-11.583,7.317" transform="translate(14.871 4.893)" fill="#009"/>
    <path id="Trazado_25281" data-name="Trazado 25281" d="M481.464,81.43l9.276-8.859a41.81,41.81,0,0,0,4.946-5.267l-.132-4.954H467.764v7.339h13.859c-5.952,5.465-14.576,13.861-14.576,13.861v4.913H496.2l-.108-7.035Z" transform="translate(7.968 4.957)" fill="#009"/>
    <path id="Trazado_25282" data-name="Trazado 25282" d="M458.3,90.18h4v1.441h-2.259v1.43h1.483v1.34h-1.483v2.655H458.29Z" transform="translate(5.532 12.701)" fill="#3c3"/>
    <path id="Trazado_25283" data-name="Trazado 25283" d="M466.3,94.454H467.8l-.528-1.767c-.061-.213-.122-.518-.122-.518h-.194a5.257,5.257,0,0,1-.111.518Zm-.487-4.274h2.478l2.072,6.864h-1.788l-.345-1.148h-2.354l-.346,1.148h-1.788Z" transform="translate(7.048 12.701)" fill="#3c3"/>
    <path id="Trazado_25284" data-name="Trazado 25284" d="M475.065,91.806a.742.742,0,0,0-.538-.184h-.843v1.727h.843a.778.778,0,0,0,.538-.2.951.951,0,0,0,.194-.68.9.9,0,0,0-.194-.66m.742,2.655,1.594,2.58H475.39l-1.448-2.352h-.264v2.355h-1.746V90.18h2.64a2.513,2.513,0,0,1,1.717.518A2.4,2.4,0,0,1,477,92.486a2.171,2.171,0,0,1-.721,1.7,2.109,2.109,0,0,1-.477.285" transform="translate(9.328 12.701)" fill="#3c3"/>
    <path id="Trazado_25285" data-name="Trazado 25285" d="M483.242,96.171h-.863l-1.117-2.437a4.954,4.954,0,0,1-.214-.629l-.141.009s.06.731.06,1.015v2.914H479.22V90.18h1.94l1.605,3.626h.091l1.6-3.626h1.94v6.863h-1.747V94.13c0-.284.061-1.015.061-1.015l-.142-.009a5.094,5.094,0,0,1-.214.629Z" transform="translate(11.354 12.701)" fill="#3c3"/>
    <path id="Trazado_25286" data-name="Trazado 25286" d="M490.406,94.454H491.9l-.528-1.767c-.061-.213-.122-.518-.122-.518h-.194a5.287,5.287,0,0,1-.111.518Zm-.487-4.274h2.476l2.073,6.863H492.68l-.345-1.148H489.98l-.343,1.148H487.85Z" transform="translate(13.755 12.701)" fill="#3c3"/>
    <path id="Trazado_25287" data-name="Trazado 25287" d="M500.715,96.763a4.071,4.071,0,0,1-1.991.468,3.491,3.491,0,0,1-2.051-.613c-.538-.448-.945-1.179-.945-2.976,0-1.7.386-2.408.894-2.875a3.064,3.064,0,0,1,2.1-.715,5.045,5.045,0,0,1,1.778.326l-.306,1.361a4.2,4.2,0,0,0-1.2-.2,1.558,1.558,0,0,0-1.077.366c-.234.224-.426.68-.426,1.746,0,1.117.192,1.554.456,1.777A1.566,1.566,0,0,0,499,95.74a4.494,4.494,0,0,0,1.411-.265Z" transform="translate(15.948 12.666)" fill="#3c3"/>
    <rect id="Rectángulo_1541" data-name="Rectángulo 1541" width="1.746" height="6.864" transform="translate(520.556 102.881)" fill="#3c3"/>
    <path id="Trazado_25288" data-name="Trazado 25288" d="M509.6,94.454h1.493l-.528-1.767c-.061-.213-.122-.518-.122-.518h-.194a4.914,4.914,0,0,1-.111.518Zm-.486-4.274h2.481l2.072,6.864h-1.788l-.345-1.148h-2.359l-.346,1.148h-1.786Z" transform="translate(19.096 12.701)" fill="#3c3"/>
    <path id="Trazado_25289" data-name="Trazado 25289" d="M517.729,97.229a6.332,6.332,0,0,1-2.537-.578l.313-1.393a5.294,5.294,0,0,0,2.043.488c.488,0,.854-.224.854-.7,0-.335-.174-.559-.6-.66l-.742-.173c-1.107-.254-1.95-.69-1.95-2.021,0-1.281.863-2.133,2.508-2.133a5.012,5.012,0,0,1,2.072.478l-.477,1.391a4.065,4.065,0,0,0-1.532-.385c-.5,0-.782.253-.782.613a.511.511,0,0,0,.437.528l.817.193c1.2.284,2.031.761,2.031,2.081a2.135,2.135,0,0,1-2.458,2.275" transform="translate(21.34 12.667)" fill="#3c3"/>
    <path id="Trazado_25290" data-name="Trazado 25290" d="M462.789,62.327l-7.3,17.619-6.772-17.619h-10.3L449.75,89.455a8.774,8.774,0,0,1-1.209.789,8.037,8.037,0,0,1-2.476.839,18.01,18.01,0,0,1-2.194.239q-1.068.044-2.079,0L440.386,97.8q2.078.146,5.229.142a19.681,19.681,0,0,0,8.3-1.532,13.93,13.93,0,0,0,5.2-3.983,13.108,13.108,0,0,0,.844-1.1,9.175,9.175,0,0,0,.674-1.152l12.46-27.845Z" transform="translate(0 4.95)" fill="#009"/>
    <path id="Trazado_25291" data-name="Trazado 25291" d="M533.556,67.3v5.146a5.872,5.872,0,0,0,11.745,0V67.3h5.146a5.872,5.872,0,0,0,0-11.745H545.3V50.408a5.872,5.872,0,0,0-11.745,0v5.146h-5.146a5.872,5.872,0,0,0,0,11.745Z" transform="translate(23.407)" fill="#3c3"/>
    <path id="Trazado_25292" data-name="Trazado 25292" d="M540.356,54.532a.533.533,0,1,1,.533.533.533.533,0,0,1-.533-.533" transform="translate(28.366 2.633)" fill="#009"/>
    <path id="Trazado_25293" data-name="Trazado 25293" d="M542.1,54.509a.409.409,0,1,1,.409.409.409.409,0,0,1-.409-.409" transform="translate(28.851 2.66)" fill="#009"/>
    <path id="Trazado_25294" data-name="Trazado 25294" d="M543.848,54.479a.289.289,0,1,1,.289.289.289.289,0,0,1-.289-.289" transform="translate(29.338 2.686)" fill="#009"/>
    <path id="Trazado_25295" data-name="Trazado 25295" d="M545.615,54.446a.139.139,0,1,1,.14.139.139.139,0,0,1-.14-.139" transform="translate(29.829 2.719)" fill="#009"/>
    <path id="Trazado_25296" data-name="Trazado 25296" d="M545.615,56.1a.139.139,0,1,1,.14.139.139.139,0,0,1-.14-.139" transform="translate(29.829 3.179)" fill="#009"/>
    <path id="Trazado_25297" data-name="Trazado 25297" d="M545.615,57.755a.139.139,0,1,1,.14.139.139.139,0,0,1-.14-.139" transform="translate(29.829 3.639)" fill="#009"/>
    <path id="Trazado_25298" data-name="Trazado 25298" d="M545.615,59.409a.139.139,0,1,1,.14.139.139.139,0,0,1-.14-.139" transform="translate(29.829 4.099)" fill="#009"/>
    <path id="Trazado_25299" data-name="Trazado 25299" d="M545.615,61.064a.139.139,0,1,1,.14.139.139.139,0,0,1-.14-.139" transform="translate(29.829 4.561)" fill="#009"/>
    <path id="Trazado_25300" data-name="Trazado 25300" d="M541.242,55.339a.444.444,0,1,1,.443.443.444.444,0,0,1-.443-.443" transform="translate(28.612 2.883)" fill="#009"/>
    <path id="Trazado_25301" data-name="Trazado 25301" d="M542.992,55.313a.322.322,0,1,1,.321.321.322.322,0,0,1-.321-.321" transform="translate(29.099 2.909)" fill="#009"/>
    <path id="Trazado_25302" data-name="Trazado 25302" d="M544.742,55.286a.2.2,0,1,1,.2.2.2.2,0,0,1-.2-.2" transform="translate(29.585 2.936)" fill="#009"/>
    <path id="Trazado_25303" data-name="Trazado 25303" d="M540.356,56.186a.533.533,0,1,1,.533.533.533.533,0,0,1-.533-.533" transform="translate(28.366 3.093)" fill="#009"/>
    <path id="Trazado_25304" data-name="Trazado 25304" d="M542.1,56.16a.409.409,0,1,1,.409.409.409.409,0,0,1-.409-.409" transform="translate(28.851 3.12)" fill="#009"/>
    <path id="Trazado_25305" data-name="Trazado 25305" d="M543.848,56.133a.289.289,0,1,1,.084.205.289.289,0,0,1-.084-.205" transform="translate(29.338 3.146)" fill="#009"/>
    <path id="Trazado_25306" data-name="Trazado 25306" d="M541.242,56.994a.444.444,0,1,1,.443.443.444.444,0,0,1-.443-.443" transform="translate(28.612 3.343)" fill="#009"/>
    <path id="Trazado_25307" data-name="Trazado 25307" d="M542.992,56.968a.322.322,0,1,1,.321.321.322.322,0,0,1-.321-.321" transform="translate(29.099 3.37)" fill="#009"/>
    <path id="Trazado_25308" data-name="Trazado 25308" d="M544.742,56.941a.2.2,0,1,1,.058.14.2.2,0,0,1-.058-.14" transform="translate(29.585 3.396)" fill="#009"/>
    <path id="Trazado_25309" data-name="Trazado 25309" d="M540.356,57.841a.533.533,0,1,1,.533.533.533.533,0,0,1-.533-.533" transform="translate(28.366 3.554)" fill="#009"/>
    <path id="Trazado_25310" data-name="Trazado 25310" d="M542.1,57.815a.409.409,0,1,1,.409.409.409.409,0,0,1-.409-.409" transform="translate(28.851 3.581)" fill="#009"/>
    <path id="Trazado_25311" data-name="Trazado 25311" d="M543.848,57.788a.289.289,0,1,1,.289.289.289.289,0,0,1-.289-.289" transform="translate(29.338 3.607)" fill="#009"/>
    <path id="Trazado_25312" data-name="Trazado 25312" d="M541.242,58.649a.444.444,0,1,1,.443.443.444.444,0,0,1-.443-.443" transform="translate(28.612 3.803)" fill="#009"/>
    <path id="Trazado_25313" data-name="Trazado 25313" d="M542.992,58.622a.322.322,0,1,1,.321.321.322.322,0,0,1-.321-.321" transform="translate(29.099 3.83)" fill="#009"/>
    <path id="Trazado_25314" data-name="Trazado 25314" d="M544.742,58.6a.2.2,0,1,1,.058.14.2.2,0,0,1-.058-.14" transform="translate(29.585 3.857)" fill="#009"/>
    <path id="Trazado_25315" data-name="Trazado 25315" d="M540.356,59.5a.533.533,0,1,1,.533.533.533.533,0,0,1-.533-.533" transform="translate(28.366 4.014)" fill="#009"/>
    <path id="Trazado_25316" data-name="Trazado 25316" d="M542.1,59.469a.409.409,0,1,1,.409.409.409.409,0,0,1-.409-.409" transform="translate(28.851 4.041)" fill="#009"/>
    <path id="Trazado_25317" data-name="Trazado 25317" d="M543.848,59.442a.289.289,0,1,1,.289.289.289.289,0,0,1-.289-.289" transform="translate(29.338 4.067)" fill="#009"/>
    <path id="Trazado_25318" data-name="Trazado 25318" d="M541.242,60.3a.444.444,0,1,1,.443.443.444.444,0,0,1-.443-.443" transform="translate(28.612 4.263)" fill="#009"/>
    <path id="Trazado_25319" data-name="Trazado 25319" d="M542.992,60.277a.322.322,0,1,1,.321.321.322.322,0,0,1-.321-.321" transform="translate(29.099 4.291)" fill="#009"/>
    <path id="Trazado_25320" data-name="Trazado 25320" d="M544.742,60.25a.2.2,0,1,1,.058.14.2.2,0,0,1-.058-.14" transform="translate(29.585 4.317)" fill="#009"/>
    <path id="Trazado_25321" data-name="Trazado 25321" d="M540.356,61.15a.533.533,0,1,1,.533.533.533.533,0,0,1-.533-.533" transform="translate(28.366 4.474)" fill="#009"/>
    <path id="Trazado_25322" data-name="Trazado 25322" d="M542.1,61.124a.409.409,0,1,1,.409.409.409.409,0,0,1-.409-.409" transform="translate(28.851 4.501)" fill="#009"/>
    <path id="Trazado_25323" data-name="Trazado 25323" d="M543.848,61.1a.289.289,0,1,1,.289.289.289.289,0,0,1-.289-.289" transform="translate(29.338 4.527)" fill="#009"/>
    <path id="Trazado_25324" data-name="Trazado 25324" d="M539.176,62.354a.533.533,0,1,1-.533.533.533.533,0,0,1,.533-.533" transform="translate(27.889 4.958)" fill="#009"/>
    <path id="Trazado_25325" data-name="Trazado 25325" d="M539.149,64.1a.409.409,0,1,1-.409.409.409.409,0,0,1,.409-.409" transform="translate(27.916 5.444)" fill="#009"/>
    <path id="Trazado_25326" data-name="Trazado 25326" d="M539.123,65.847a.289.289,0,1,1-.289.289.289.289,0,0,1,.289-.289" transform="translate(27.942 5.93)" fill="#009"/>
    <path id="Trazado_25327" data-name="Trazado 25327" d="M539.091,67.614a.139.139,0,1,1-.139.139.139.139,0,0,1,.139-.139" transform="translate(27.974 6.422)" fill="#009"/>
    <path id="Trazado_25328" data-name="Trazado 25328" d="M537.436,67.614a.139.139,0,1,1-.139.139.139.139,0,0,1,.139-.139" transform="translate(27.514 6.422)" fill="#009"/>
    <path id="Trazado_25329" data-name="Trazado 25329" d="M535.781,67.614a.139.139,0,1,1-.139.139.139.139,0,0,1,.139-.139" transform="translate(27.054 6.422)" fill="#009"/>
    <path id="Trazado_25330" data-name="Trazado 25330" d="M534.127,67.614a.139.139,0,1,1-.139.139.139.139,0,0,1,.139-.139" transform="translate(26.594 6.422)" fill="#009"/>
    <path id="Trazado_25331" data-name="Trazado 25331" d="M532.474,67.614a.139.139,0,1,1-.139.139.139.139,0,0,1,.139-.139" transform="translate(26.133 6.422)" fill="#009"/>
    <path id="Trazado_25332" data-name="Trazado 25332" d="M538.329,63.241a.444.444,0,1,1-.443.443.444.444,0,0,1,.443-.443" transform="translate(27.678 5.204)" fill="#009"/>
    <path id="Trazado_25333" data-name="Trazado 25333" d="M538.307,64.99a.321.321,0,1,1-.321.321.321.321,0,0,1,.321-.321" transform="translate(27.705 5.691)" fill="#009"/>
    <path id="Trazado_25334" data-name="Trazado 25334" d="M538.276,66.74a.2.2,0,1,1-.14.058.2.2,0,0,1,.14-.058" transform="translate(27.732 6.178)" fill="#009"/>
    <path id="Trazado_25335" data-name="Trazado 25335" d="M537.522,62.354a.533.533,0,1,1-.533.533.533.533,0,0,1,.533-.533" transform="translate(27.429 4.958)" fill="#009"/>
    <path id="Trazado_25336" data-name="Trazado 25336" d="M537.5,64.1a.409.409,0,1,1-.409.409.409.409,0,0,1,.409-.409" transform="translate(27.455 5.444)" fill="#009"/>
    <path id="Trazado_25337" data-name="Trazado 25337" d="M537.469,65.847a.289.289,0,1,1-.289.289.289.289,0,0,1,.289-.289" transform="translate(27.482 5.93)" fill="#009"/>
    <path id="Trazado_25338" data-name="Trazado 25338" d="M536.675,63.241a.444.444,0,1,1-.443.443.444.444,0,0,1,.443-.443" transform="translate(27.218 5.204)" fill="#009"/>
    <path id="Trazado_25339" data-name="Trazado 25339" d="M536.649,64.99a.321.321,0,1,1-.321.321.321.321,0,0,1,.321-.321" transform="translate(27.244 5.691)" fill="#009"/>
    <path id="Trazado_25340" data-name="Trazado 25340" d="M536.622,66.74a.2.2,0,1,1-.2.2.2.2,0,0,1,.2-.2" transform="translate(27.271 6.178)" fill="#009"/>
    <path id="Trazado_25341" data-name="Trazado 25341" d="M535.867,62.354a.533.533,0,1,1-.533.533.533.533,0,0,1,.533-.533" transform="translate(26.968 4.958)" fill="#009"/>
    <path id="Trazado_25342" data-name="Trazado 25342" d="M535.84,64.1a.409.409,0,1,1-.409.409.409.409,0,0,1,.409-.409" transform="translate(26.994 5.444)" fill="#009"/>
    <path id="Trazado_25343" data-name="Trazado 25343" d="M535.814,65.847a.289.289,0,1,1-.289.289.289.289,0,0,1,.289-.289" transform="translate(27.022 5.93)" fill="#009"/>
    <path id="Trazado_25344" data-name="Trazado 25344" d="M535.021,63.241a.444.444,0,1,1-.445.443.444.444,0,0,1,.445-.443" transform="translate(26.758 5.204)" fill="#009"/>
    <path id="Trazado_25345" data-name="Trazado 25345" d="M534.994,64.99a.321.321,0,1,1-.321.321.321.321,0,0,1,.321-.321" transform="translate(26.784 5.691)" fill="#009"/>
    <path id="Trazado_25346" data-name="Trazado 25346" d="M534.967,66.74a.2.2,0,1,1-.14.058.2.2,0,0,1,.14-.058" transform="translate(26.811 6.178)" fill="#009"/>
    <path id="Trazado_25347" data-name="Trazado 25347" d="M534.211,62.354a.533.533,0,1,1-.533.533.533.533,0,0,1,.533-.533" transform="translate(26.508 4.958)" fill="#009"/>
    <path id="Trazado_25348" data-name="Trazado 25348" d="M534.186,64.1a.409.409,0,1,1-.409.409.409.409,0,0,1,.409-.409" transform="translate(26.534 5.444)" fill="#009"/>
    <path id="Trazado_25349" data-name="Trazado 25349" d="M534.16,65.847a.289.289,0,1,1-.289.289.289.289,0,0,1,.289-.289" transform="translate(26.561 5.93)" fill="#009"/>
    <path id="Trazado_25350" data-name="Trazado 25350" d="M533.366,63.241a.444.444,0,1,1-.443.443.444.444,0,0,1,.443-.443" transform="translate(26.298 5.204)" fill="#009"/>
    <path id="Trazado_25351" data-name="Trazado 25351" d="M533.341,64.99a.32.32,0,1,1-.228.093.321.321,0,0,1,.228-.093" transform="translate(26.324 5.691)" fill="#009"/>
    <path id="Trazado_25352" data-name="Trazado 25352" d="M533.313,66.74a.2.2,0,1,1-.14.058.2.2,0,0,1,.14-.058" transform="translate(26.351 6.178)" fill="#009"/>
    <path id="Trazado_25353" data-name="Trazado 25353" d="M532.559,62.354a.533.533,0,1,1-.533.533.533.533,0,0,1,.533-.533" transform="translate(26.048 4.958)" fill="#009"/>
    <path id="Trazado_25354" data-name="Trazado 25354" d="M532.533,64.1a.409.409,0,1,1-.409.409.409.409,0,0,1,.409-.409" transform="translate(26.074 5.444)" fill="#009"/>
    <path id="Trazado_25355" data-name="Trazado 25355" d="M532.506,65.847a.289.289,0,1,1-.205.084.289.289,0,0,1,.205-.084" transform="translate(26.101 5.93)" fill="#009"/>
    <path id="Trazado_25356" data-name="Trazado 25356" d="M528.477,77.892h-1.139V79.8H528.4c.643,0,1.015-.193,1.015-.986,0-.621-.273-.919-.942-.919M526.8,77.4h1.856a1.284,1.284,0,0,1,1.315,1.436,1.358,1.358,0,0,1-1.117,1.436l1.538,2.18h-.67L528.255,80.3h-.919v2.154h-.543Zm1.585-1.812a4.4,4.4,0,1,0,4.384,4.392,4.4,4.4,0,0,0-4.384-4.392m0,9.343a4.939,4.939,0,1,1,3.492-1.456,4.944,4.944,0,0,1-3.492,1.456" transform="translate(23.654 8.489)" fill="#009"/>
  </g>
</svg>
